<mxfile host="app.diagrams.net" modified="2024-05-02T21:53:25.535Z" agent="Mozilla/5.0 (Windows NT 10.0; Win64; x64) AppleWebKit/537.36 (KHTML, like Gecko) Chrome/124.0.0.0 Safari/537.36" etag="sO3naXH-atWAaweO04iv" version="24.3.1" type="google">
  <diagram id="R2lEEEUBdFMjLlhIrx00" name="Page-1">
    <mxGraphModel grid="1" page="1" gridSize="10" guides="1" tooltips="1" connect="1" arrows="1" fold="1" pageScale="1" pageWidth="850" pageHeight="1100" math="0" shadow="0" extFonts="Permanent Marker^https://fonts.googleapis.com/css?family=Permanent+Marker">
      <root>
        <mxCell id="0" />
        <mxCell id="1" parent="0" />
        <mxCell id="MGgyF5guEUXQHgYsiKwj-6" value="" style="rounded=0;whiteSpace=wrap;html=1;" vertex="1" parent="1">
          <mxGeometry x="10" y="40" width="120" height="40" as="geometry" />
        </mxCell>
        <mxCell id="MGgyF5guEUXQHgYsiKwj-7" value="" style="rounded=0;whiteSpace=wrap;html=1;" vertex="1" parent="1">
          <mxGeometry x="130" y="40" width="120" height="40" as="geometry" />
        </mxCell>
        <mxCell id="MGgyF5guEUXQHgYsiKwj-8" value="" style="rounded=0;whiteSpace=wrap;html=1;" vertex="1" parent="1">
          <mxGeometry x="250" y="40" width="120" height="40" as="geometry" />
        </mxCell>
        <mxCell id="MGgyF5guEUXQHgYsiKwj-10" value="sehir" style="text;html=1;align=center;verticalAlign=middle;whiteSpace=wrap;rounded=0;fontSize=21;" vertex="1" parent="1">
          <mxGeometry x="270" y="45" width="60" height="30" as="geometry" />
        </mxCell>
        <mxCell id="MGgyF5guEUXQHgYsiKwj-12" value="musteriId" style="text;html=1;align=center;verticalAlign=middle;whiteSpace=wrap;rounded=0;fontSize=21;" vertex="1" parent="1">
          <mxGeometry x="20" y="50" width="100" height="20" as="geometry" />
        </mxCell>
        <mxCell id="MGgyF5guEUXQHgYsiKwj-13" value="Müşteriler" style="text;html=1;align=center;verticalAlign=middle;whiteSpace=wrap;rounded=0;fontSize=21;" vertex="1" parent="1">
          <mxGeometry x="20" y="10" width="70" height="20" as="geometry" />
        </mxCell>
        <mxCell id="MGgyF5guEUXQHgYsiKwj-14" value="" style="rounded=0;whiteSpace=wrap;html=1;" vertex="1" parent="1">
          <mxGeometry x="10" y="200" width="120" height="40" as="geometry" />
        </mxCell>
        <mxCell id="MGgyF5guEUXQHgYsiKwj-15" value="" style="rounded=0;whiteSpace=wrap;html=1;" vertex="1" parent="1">
          <mxGeometry x="130" y="200" width="120" height="40" as="geometry" />
        </mxCell>
        <mxCell id="MGgyF5guEUXQHgYsiKwj-16" value="" style="rounded=0;whiteSpace=wrap;html=1;" vertex="1" parent="1">
          <mxGeometry x="250" y="200" width="120" height="40" as="geometry" />
        </mxCell>
        <mxCell id="MGgyF5guEUXQHgYsiKwj-17" value="" style="rounded=0;whiteSpace=wrap;html=1;" vertex="1" parent="1">
          <mxGeometry x="370" y="200" width="120" height="40" as="geometry" />
        </mxCell>
        <mxCell id="MGgyF5guEUXQHgYsiKwj-18" value="musteriId" style="text;html=1;align=center;verticalAlign=middle;whiteSpace=wrap;rounded=0;fontSize=21;" vertex="1" parent="1">
          <mxGeometry x="140" y="210" width="100" height="20" as="geometry" />
        </mxCell>
        <mxCell id="MGgyF5guEUXQHgYsiKwj-19" value="Teslimat Bilgileri" style="text;html=1;align=center;verticalAlign=middle;whiteSpace=wrap;rounded=0;fontSize=21;" vertex="1" parent="1">
          <mxGeometry x="10" y="170" width="160" height="20" as="geometry" />
        </mxCell>
        <mxCell id="MGgyF5guEUXQHgYsiKwj-20" value="musteriAdı" style="text;html=1;align=center;verticalAlign=middle;whiteSpace=wrap;rounded=0;fontSize=21;" vertex="1" parent="1">
          <mxGeometry x="160" y="45" width="60" height="30" as="geometry" />
        </mxCell>
        <mxCell id="MGgyF5guEUXQHgYsiKwj-21" value="teslimatId" style="text;html=1;align=center;verticalAlign=middle;whiteSpace=wrap;rounded=0;fontSize=21;" vertex="1" parent="1">
          <mxGeometry x="40" y="205" width="60" height="30" as="geometry" />
        </mxCell>
        <mxCell id="MGgyF5guEUXQHgYsiKwj-22" value="sevkiyatNoktası" style="text;html=1;align=center;verticalAlign=middle;whiteSpace=wrap;rounded=0;fontSize=16;" vertex="1" parent="1">
          <mxGeometry x="280" y="205" width="60" height="30" as="geometry" />
        </mxCell>
        <mxCell id="MGgyF5guEUXQHgYsiKwj-23" value="teslimatTürü" style="text;html=1;align=center;verticalAlign=middle;whiteSpace=wrap;rounded=0;fontSize=18;" vertex="1" parent="1">
          <mxGeometry x="400" y="205" width="60" height="30" as="geometry" />
        </mxCell>
        <mxCell id="MGgyF5guEUXQHgYsiKwj-24" value="" style="rounded=0;whiteSpace=wrap;html=1;" vertex="1" parent="1">
          <mxGeometry x="490" y="200" width="120" height="40" as="geometry" />
        </mxCell>
        <mxCell id="MGgyF5guEUXQHgYsiKwj-25" value="planlananTarih" style="text;html=1;align=center;verticalAlign=middle;whiteSpace=wrap;rounded=0;fontSize=16;" vertex="1" parent="1">
          <mxGeometry x="520" y="205" width="60" height="30" as="geometry" />
        </mxCell>
        <mxCell id="MGgyF5guEUXQHgYsiKwj-26" value="" style="rounded=0;whiteSpace=wrap;html=1;" vertex="1" parent="1">
          <mxGeometry x="610" y="200" width="120" height="40" as="geometry" />
        </mxCell>
        <mxCell id="MGgyF5guEUXQHgYsiKwj-27" value="teslimatTermini" style="text;html=1;align=center;verticalAlign=middle;whiteSpace=wrap;rounded=0;fontSize=16;" vertex="1" parent="1">
          <mxGeometry x="640" y="205" width="60" height="30" as="geometry" />
        </mxCell>
        <mxCell id="MGgyF5guEUXQHgYsiKwj-39" value="" style="rounded=0;whiteSpace=wrap;html=1;" vertex="1" parent="1">
          <mxGeometry x="10" y="360" width="120" height="40" as="geometry" />
        </mxCell>
        <mxCell id="MGgyF5guEUXQHgYsiKwj-40" value="" style="rounded=0;whiteSpace=wrap;html=1;" vertex="1" parent="1">
          <mxGeometry x="130" y="360" width="120" height="40" as="geometry" />
        </mxCell>
        <mxCell id="MGgyF5guEUXQHgYsiKwj-41" value="" style="rounded=0;whiteSpace=wrap;html=1;" vertex="1" parent="1">
          <mxGeometry x="250" y="360" width="120" height="40" as="geometry" />
        </mxCell>
        <mxCell id="MGgyF5guEUXQHgYsiKwj-42" value="" style="rounded=0;whiteSpace=wrap;html=1;" vertex="1" parent="1">
          <mxGeometry x="370" y="360" width="120" height="40" as="geometry" />
        </mxCell>
        <mxCell id="MGgyF5guEUXQHgYsiKwj-44" value="Teslimat Bilgileri Kalemi" style="text;html=1;align=center;verticalAlign=middle;whiteSpace=wrap;rounded=0;fontSize=21;" vertex="1" parent="1">
          <mxGeometry x="10" y="330" width="230" height="20" as="geometry" />
        </mxCell>
        <mxCell id="MGgyF5guEUXQHgYsiKwj-45" value="teslimatId" style="text;html=1;align=center;verticalAlign=middle;whiteSpace=wrap;rounded=0;fontSize=21;" vertex="1" parent="1">
          <mxGeometry x="160" y="365" width="60" height="30" as="geometry" />
        </mxCell>
        <mxCell id="MGgyF5guEUXQHgYsiKwj-46" value="malzemeId" style="text;html=1;align=center;verticalAlign=middle;whiteSpace=wrap;rounded=0;fontSize=16;" vertex="1" parent="1">
          <mxGeometry x="280" y="365" width="60" height="30" as="geometry" />
        </mxCell>
        <mxCell id="MGgyF5guEUXQHgYsiKwj-47" value="malzemeAdı" style="text;html=1;align=center;verticalAlign=middle;whiteSpace=wrap;rounded=0;fontSize=18;" vertex="1" parent="1">
          <mxGeometry x="400" y="365" width="60" height="30" as="geometry" />
        </mxCell>
        <mxCell id="MGgyF5guEUXQHgYsiKwj-48" value="" style="rounded=0;whiteSpace=wrap;html=1;" vertex="1" parent="1">
          <mxGeometry x="490" y="360" width="120" height="40" as="geometry" />
        </mxCell>
        <mxCell id="MGgyF5guEUXQHgYsiKwj-49" value="malzemeGrubu" style="text;html=1;align=center;verticalAlign=middle;whiteSpace=wrap;rounded=0;fontSize=16;" vertex="1" parent="1">
          <mxGeometry x="520" y="365" width="60" height="30" as="geometry" />
        </mxCell>
        <mxCell id="MGgyF5guEUXQHgYsiKwj-50" value="" style="rounded=0;whiteSpace=wrap;html=1;" vertex="1" parent="1">
          <mxGeometry x="610" y="360" width="120" height="40" as="geometry" />
        </mxCell>
        <mxCell id="MGgyF5guEUXQHgYsiKwj-51" value="depoYeri" style="text;html=1;align=center;verticalAlign=middle;whiteSpace=wrap;rounded=0;fontSize=16;" vertex="1" parent="1">
          <mxGeometry x="640" y="365" width="60" height="30" as="geometry" />
        </mxCell>
        <mxCell id="MGgyF5guEUXQHgYsiKwj-53" value="teslimatBilgileriId" style="text;html=1;align=center;verticalAlign=middle;whiteSpace=wrap;rounded=0;fontSize=15;" vertex="1" parent="1">
          <mxGeometry x="40" y="365" width="60" height="30" as="geometry" />
        </mxCell>
        <mxCell id="MGgyF5guEUXQHgYsiKwj-54" value="" style="rounded=0;whiteSpace=wrap;html=1;" vertex="1" parent="1">
          <mxGeometry x="730" y="360" width="120" height="40" as="geometry" />
        </mxCell>
        <mxCell id="MGgyF5guEUXQHgYsiKwj-55" value="üretimYeri" style="text;html=1;align=center;verticalAlign=middle;whiteSpace=wrap;rounded=0;fontSize=16;" vertex="1" parent="1">
          <mxGeometry x="760" y="365" width="60" height="30" as="geometry" />
        </mxCell>
        <mxCell id="MGgyF5guEUXQHgYsiKwj-56" value="" style="rounded=0;whiteSpace=wrap;html=1;" vertex="1" parent="1">
          <mxGeometry x="10" y="520" width="120" height="40" as="geometry" />
        </mxCell>
        <mxCell id="MGgyF5guEUXQHgYsiKwj-57" value="" style="rounded=0;whiteSpace=wrap;html=1;" vertex="1" parent="1">
          <mxGeometry x="130" y="520" width="120" height="40" as="geometry" />
        </mxCell>
        <mxCell id="MGgyF5guEUXQHgYsiKwj-58" value="" style="rounded=0;whiteSpace=wrap;html=1;" vertex="1" parent="1">
          <mxGeometry x="250" y="520" width="120" height="40" as="geometry" />
        </mxCell>
        <mxCell id="MGgyF5guEUXQHgYsiKwj-59" value="" style="rounded=0;whiteSpace=wrap;html=1;" vertex="1" parent="1">
          <mxGeometry x="370" y="520" width="120" height="40" as="geometry" />
        </mxCell>
        <mxCell id="MGgyF5guEUXQHgYsiKwj-60" value="teslimatBilgileriId" style="text;html=1;align=center;verticalAlign=middle;whiteSpace=wrap;rounded=0;fontSize=15;" vertex="1" parent="1">
          <mxGeometry x="140" y="530" width="100" height="20" as="geometry" />
        </mxCell>
        <mxCell id="MGgyF5guEUXQHgYsiKwj-61" value="Nakliye Bilgileri" style="text;html=1;align=center;verticalAlign=middle;whiteSpace=wrap;rounded=0;fontSize=21;" vertex="1" parent="1">
          <mxGeometry x="10" y="490" width="150" height="20" as="geometry" />
        </mxCell>
        <mxCell id="MGgyF5guEUXQHgYsiKwj-62" value="nakliyeId" style="text;html=1;align=center;verticalAlign=middle;whiteSpace=wrap;rounded=0;fontSize=21;" vertex="1" parent="1">
          <mxGeometry x="40" y="525" width="60" height="30" as="geometry" />
        </mxCell>
        <mxCell id="MGgyF5guEUXQHgYsiKwj-63" value="yüklemeSaatiBaşlangıcı" style="text;html=1;align=center;verticalAlign=middle;whiteSpace=wrap;rounded=0;fontSize=11;" vertex="1" parent="1">
          <mxGeometry x="280" y="525" width="60" height="30" as="geometry" />
        </mxCell>
        <mxCell id="MGgyF5guEUXQHgYsiKwj-64" value="yüklemeSaatiBitişi" style="text;html=1;align=center;verticalAlign=middle;whiteSpace=wrap;rounded=0;fontSize=13;" vertex="1" parent="1">
          <mxGeometry x="400" y="525" width="60" height="30" as="geometry" />
        </mxCell>
        <mxCell id="MGgyF5guEUXQHgYsiKwj-76" value="" style="rounded=0;whiteSpace=wrap;html=1;" vertex="1" parent="1">
          <mxGeometry x="10" y="680" width="120" height="40" as="geometry" />
        </mxCell>
        <mxCell id="MGgyF5guEUXQHgYsiKwj-77" value="" style="rounded=0;whiteSpace=wrap;html=1;" vertex="1" parent="1">
          <mxGeometry x="130" y="680" width="120" height="40" as="geometry" />
        </mxCell>
        <mxCell id="MGgyF5guEUXQHgYsiKwj-78" value="" style="rounded=0;whiteSpace=wrap;html=1;" vertex="1" parent="1">
          <mxGeometry x="250" y="680" width="120" height="40" as="geometry" />
        </mxCell>
        <mxCell id="MGgyF5guEUXQHgYsiKwj-79" value="" style="rounded=0;whiteSpace=wrap;html=1;" vertex="1" parent="1">
          <mxGeometry x="370" y="680" width="120" height="40" as="geometry" />
        </mxCell>
        <mxCell id="MGgyF5guEUXQHgYsiKwj-80" value="paketId" style="text;html=1;align=center;verticalAlign=middle;whiteSpace=wrap;rounded=0;fontSize=19;" vertex="1" parent="1">
          <mxGeometry x="20" y="690" width="100" height="20" as="geometry" />
        </mxCell>
        <mxCell id="MGgyF5guEUXQHgYsiKwj-81" value="Paket Bilgileri" style="text;html=1;align=center;verticalAlign=middle;whiteSpace=wrap;rounded=0;fontSize=21;" vertex="1" parent="1">
          <mxGeometry x="10" y="650" width="130" height="20" as="geometry" />
        </mxCell>
        <mxCell id="MGgyF5guEUXQHgYsiKwj-82" value="nakliyeId" style="text;html=1;align=center;verticalAlign=middle;whiteSpace=wrap;rounded=0;fontSize=21;" vertex="1" parent="1">
          <mxGeometry x="160" y="685" width="60" height="30" as="geometry" />
        </mxCell>
        <mxCell id="MGgyF5guEUXQHgYsiKwj-83" value="ürünTipi" style="text;html=1;align=center;verticalAlign=middle;whiteSpace=wrap;rounded=0;fontSize=20;" vertex="1" parent="1">
          <mxGeometry x="280" y="685" width="60" height="30" as="geometry" />
        </mxCell>
        <mxCell id="MGgyF5guEUXQHgYsiKwj-84" value="birimAdet" style="text;html=1;align=center;verticalAlign=middle;whiteSpace=wrap;rounded=0;fontSize=19;" vertex="1" parent="1">
          <mxGeometry x="400" y="685" width="60" height="30" as="geometry" />
        </mxCell>
        <mxCell id="MGgyF5guEUXQHgYsiKwj-85" value="" style="rounded=0;whiteSpace=wrap;html=1;" vertex="1" parent="1">
          <mxGeometry x="490" y="680" width="120" height="40" as="geometry" />
        </mxCell>
        <mxCell id="MGgyF5guEUXQHgYsiKwj-86" value="taşınanAraç" style="text;html=1;align=center;verticalAlign=middle;whiteSpace=wrap;rounded=0;fontSize=19;" vertex="1" parent="1">
          <mxGeometry x="520" y="685" width="60" height="30" as="geometry" />
        </mxCell>
        <mxCell id="MGgyF5guEUXQHgYsiKwj-89" value="" style="curved=1;endArrow=classic;html=1;rounded=0;exitX=0.604;exitY=-0.03;exitDx=0;exitDy=0;exitPerimeter=0;entryX=0.75;entryY=1;entryDx=0;entryDy=0;" edge="1" parent="1" source="MGgyF5guEUXQHgYsiKwj-15" target="MGgyF5guEUXQHgYsiKwj-6">
          <mxGeometry width="50" height="50" relative="1" as="geometry">
            <mxPoint x="120" y="170" as="sourcePoint" />
            <mxPoint x="90" y="90" as="targetPoint" />
            <Array as="points">
              <mxPoint x="202" y="170" />
              <mxPoint x="170" y="160" />
              <mxPoint x="120" y="160" />
              <mxPoint x="100" y="150" />
            </Array>
          </mxGeometry>
        </mxCell>
        <mxCell id="MGgyF5guEUXQHgYsiKwj-90" value="" style="curved=1;endArrow=classic;html=1;rounded=0;exitX=0.604;exitY=-0.03;exitDx=0;exitDy=0;exitPerimeter=0;entryX=0.593;entryY=0.98;entryDx=0;entryDy=0;entryPerimeter=0;" edge="1" parent="1" target="MGgyF5guEUXQHgYsiKwj-14">
          <mxGeometry width="50" height="50" relative="1" as="geometry">
            <mxPoint x="232" y="359" as="sourcePoint" />
            <mxPoint x="70" y="250" as="targetPoint" />
            <Array as="points">
              <mxPoint x="232" y="330" />
              <mxPoint x="200" y="320" />
              <mxPoint x="150" y="320" />
              <mxPoint x="80" y="300" />
              <mxPoint x="80" y="270" />
            </Array>
          </mxGeometry>
        </mxCell>
        <mxCell id="MGgyF5guEUXQHgYsiKwj-91" value="" style="curved=1;endArrow=classic;html=1;rounded=0;exitX=0.604;exitY=-0.03;exitDx=0;exitDy=0;exitPerimeter=0;entryX=0.593;entryY=0.98;entryDx=0;entryDy=0;entryPerimeter=0;" edge="1" parent="1">
          <mxGeometry width="50" height="50" relative="1" as="geometry">
            <mxPoint x="232" y="520" as="sourcePoint" />
            <mxPoint x="81" y="400" as="targetPoint" />
            <Array as="points">
              <mxPoint x="232" y="491" />
              <mxPoint x="200" y="481" />
              <mxPoint x="150" y="481" />
              <mxPoint x="80" y="461" />
              <mxPoint x="80" y="431" />
            </Array>
          </mxGeometry>
        </mxCell>
        <mxCell id="MGgyF5guEUXQHgYsiKwj-92" value="" style="curved=1;endArrow=classic;html=1;rounded=0;exitX=0.604;exitY=-0.03;exitDx=0;exitDy=0;exitPerimeter=0;entryX=0.593;entryY=0.98;entryDx=0;entryDy=0;entryPerimeter=0;" edge="1" parent="1">
          <mxGeometry width="50" height="50" relative="1" as="geometry">
            <mxPoint x="232" y="680" as="sourcePoint" />
            <mxPoint x="81" y="560" as="targetPoint" />
            <Array as="points">
              <mxPoint x="232" y="651" />
              <mxPoint x="200" y="641" />
              <mxPoint x="150" y="641" />
              <mxPoint x="80" y="621" />
              <mxPoint x="80" y="591" />
            </Array>
          </mxGeometry>
        </mxCell>
        <mxCell id="MGgyF5guEUXQHgYsiKwj-94" value="" style="curved=1;endArrow=classic;html=1;rounded=0;exitX=0.5;exitY=0;exitDx=0;exitDy=0;" edge="1" parent="1" source="MGgyF5guEUXQHgYsiKwj-78">
          <mxGeometry width="50" height="50" relative="1" as="geometry">
            <mxPoint x="290" y="640" as="sourcePoint" />
            <mxPoint x="540" y="400" as="targetPoint" />
            <Array as="points">
              <mxPoint x="280" y="660" />
              <mxPoint x="470" y="650" />
              <mxPoint x="650" y="660" />
              <mxPoint x="650" y="570" />
              <mxPoint x="650" y="480" />
              <mxPoint x="640" y="440" />
              <mxPoint x="530" y="440" />
            </Array>
          </mxGeometry>
        </mxCell>
      </root>
    </mxGraphModel>
  </diagram>
</mxfile>
